<svg width="70" height="70" viewBox="0 0 56 56" fill="none" xmlns="http://www.w3.org/2000/svg">
<g clip-path="url(#clip0_2160_10507)">
<g clip-path="url(#clip1_2160_10507)">
<path d="M18.7407 26.8786C18.2422 27.2294 17.8399 27.5363 17.4026 27.7906C17.3064 27.8432 17.0791 27.7467 16.9479 27.659C16.0646 27.0715 16.3707 27.0891 15.5749 27.7204C14.2544 28.7727 12.9601 29.86 11.6308 30.9122C11.2985 31.1753 11.1935 31.412 11.3422 31.8329C11.7095 32.8501 12.0418 33.876 12.3479 34.9107C12.4528 35.2615 12.6365 35.3579 12.9688 35.3667C13.6947 35.393 14.4205 35.4368 15.1551 35.4807C15.295 35.4895 15.435 35.5158 15.6361 35.5333C15.5049 36.0419 15.4 36.5066 15.2601 36.9626C15.2338 37.0503 15.0327 37.138 14.919 37.1292C13.7996 37.0766 12.6802 37.024 11.5608 36.9363C11.4297 36.9275 11.2373 36.7785 11.2023 36.6557C10.5726 34.7704 9.96046 32.8852 9.36578 30.9911C9.32205 30.8596 9.40076 30.6053 9.51445 30.5176C11.6395 28.7639 13.7734 27.0189 15.9159 25.2915C16.0209 25.2126 16.2483 25.1424 16.327 25.195C17.114 25.7299 17.8836 26.2736 18.7407 26.8786Z" fill="#04644C"/>
<path d="M31.265 42.1433C31.7285 42.4414 32.122 42.6782 32.498 42.95C32.5767 43.0114 32.6205 43.2131 32.5855 43.3183C32.192 44.3881 31.7809 45.4491 31.3612 46.5013C31.3087 46.6241 31.1163 46.7556 30.9851 46.7556C28.9999 46.7732 27.0235 46.7644 25.0384 46.7732C24.706 46.7732 24.6623 46.5452 24.5836 46.3347C23.8228 44.3618 23.0619 42.3801 22.3099 40.4071C22.1 39.8634 21.8988 39.311 21.6715 38.7761C21.5665 38.5218 21.5928 38.3552 21.8289 38.1886C22.546 37.6713 23.2456 37.1276 24.0239 36.5401C24.1988 37.1013 24.3737 37.5924 24.4874 38.0922C24.5137 38.1974 24.33 38.3815 24.2076 38.4868C23.5342 39.0392 23.5429 39.0304 23.8665 39.8634C24.4962 41.4769 25.1258 43.0991 25.7292 44.7301C25.8429 45.0282 25.9916 45.1246 26.3064 45.1159C27.4171 45.0983 28.519 45.0896 29.6296 45.1247C30.0231 45.1334 30.198 44.9931 30.3205 44.6336C30.6003 43.8093 30.9239 43.0202 31.265 42.1433Z" fill="#04644C"/>
<path d="M17.1055 18.5723C16.5633 18.5987 16.0736 18.6425 15.5838 18.6425C15.4964 18.6425 15.3652 18.4671 15.3302 18.3444C15.0416 17.2921 14.7705 16.2311 14.4819 15.1701C14.412 14.9158 14.4819 14.7667 14.6831 14.6177C16.266 13.4778 17.8488 12.3291 19.423 11.1716C19.6241 11.0225 19.7728 11.0488 19.9652 11.1716C22.2477 12.6623 24.5302 14.1442 26.8214 15.6173C27.0751 15.7751 27.145 15.9417 27.0488 16.2311C26.8214 16.9238 26.6203 17.6253 26.4017 18.3268C26.3579 18.4759 26.288 18.6162 26.2093 18.8266C25.7545 18.4847 25.3348 18.1953 24.9587 17.8621C24.88 17.8007 24.9062 17.564 24.95 17.4324C25.1861 16.5643 25.1861 16.5643 24.4427 16.082C22.991 15.135 21.5306 14.1968 20.0789 13.241C19.8253 13.0744 19.6504 13.0569 19.388 13.2585C18.496 13.9425 17.5865 14.6001 16.6682 15.2403C16.3797 15.4419 16.3184 15.6436 16.4146 15.9768C16.6595 16.8098 16.8694 17.6516 17.1055 18.5723Z" fill="#04644C"/>
<path d="M22.3969 41.3902C22.5893 41.8988 22.7817 42.3548 22.9303 42.8195C22.9566 42.8984 22.8516 43.0651 22.7642 43.1177C21.8197 43.7402 20.8665 44.3628 19.8958 44.9591C19.7908 45.0292 19.546 45.0117 19.441 44.9328C17.8406 43.7841 16.249 42.6266 14.6749 41.4516C14.5524 41.3639 14.465 41.0921 14.5 40.9518C15.1908 38.2774 15.8992 35.6117 16.6163 32.946C16.6513 32.8145 16.7912 32.6216 16.8874 32.6216C17.8319 32.5953 18.7764 32.604 19.8171 32.604C19.6334 33.1389 19.4672 33.6212 19.2748 34.1035C19.2399 34.1824 19.065 34.235 18.9513 34.2525C18.7239 34.2788 18.479 34.235 18.2517 34.2788C18.1292 34.3051 17.9543 34.4279 17.9281 34.5419C17.4034 36.4535 16.8874 38.3738 16.3977 40.2941C16.3627 40.4344 16.4764 40.6975 16.5988 40.794C17.5433 41.5042 18.5053 42.1882 19.4498 42.8897C19.6684 43.0475 19.8258 43.0387 20.0357 42.8984C20.6741 42.4688 21.33 42.0567 21.9771 41.6358C22.0908 41.5656 22.2132 41.4955 22.3969 41.3902Z" fill="#1DB45F"/>
<path d="M34.8242 34.4971C35.4101 34.4971 35.8911 34.4708 36.3634 34.5146C36.4946 34.5234 36.652 34.7338 36.7044 34.8829C37.0193 35.6721 37.0105 35.6896 37.8501 35.6458C39.6079 35.5581 41.3744 35.4616 43.1322 35.3739C43.412 35.3652 43.5345 35.2512 43.6219 34.9793C43.9717 33.8482 44.339 32.7258 44.7151 31.6034C44.7938 31.3666 44.7413 31.2264 44.5576 31.0773C43.8405 30.5073 43.1409 29.9198 42.3626 29.2797C42.7911 28.929 43.1759 28.6045 43.5782 28.3064C43.6307 28.2625 43.7968 28.3239 43.8755 28.3765C44.7675 29.0868 45.6508 29.7971 46.5166 30.5336C46.6128 30.6213 46.674 30.8581 46.639 30.9808C46.0443 32.8749 45.4234 34.7601 44.82 36.6542C44.7326 36.9348 44.5314 36.9348 44.3128 36.9523C42.0303 37.0751 39.7478 37.1978 37.4565 37.3293C37.0193 37.3557 36.582 37.3907 36.1447 37.3995C36.0223 37.3995 35.8124 37.3381 35.7862 37.2592C35.4539 36.3736 35.1565 35.4616 34.8242 34.4971Z" fill="#04644C"/>
<path d="M37.2627 29.227C37.7524 28.885 38.1722 28.5693 38.6182 28.315C38.7144 28.2624 38.9418 28.3677 39.073 28.4553C39.7638 28.9201 39.7638 28.9288 40.4022 28.4115C41.784 27.2891 43.157 26.1579 44.5387 25.0443C44.7486 24.869 44.8011 24.7199 44.7049 24.4481C44.3288 23.3607 43.979 22.2559 43.6467 21.1598C43.5505 20.8529 43.4018 20.7389 43.0958 20.7301C42.2125 20.6951 41.3292 20.6425 40.3672 20.5811C40.5072 20.0462 40.6209 19.5551 40.7695 19.0729C40.7958 19.0027 40.9794 18.9413 41.0931 18.9501C42.195 19.0027 43.3056 19.0816 44.4075 19.1342C44.6786 19.143 44.7836 19.2658 44.8623 19.5025C45.4482 21.3264 46.0342 23.1415 46.6288 24.9566C46.725 25.2548 46.69 25.4477 46.4189 25.6669C44.3201 27.3593 42.23 29.0604 40.1486 30.779C39.9212 30.9719 39.7551 30.9983 39.5102 30.8141C38.7931 30.288 38.0585 29.7882 37.2627 29.227Z" fill="#1DB45F"/>
<path d="M29.7518 37.2602C30.224 37.6197 30.6525 37.9003 31.0198 38.2423C31.116 38.33 31.0636 38.6193 31.0198 38.8035C30.8274 39.54 30.8187 39.54 31.4571 39.9522C32.935 40.9167 34.4217 41.8637 35.8822 42.8458C36.1708 43.0387 36.3632 43.0387 36.643 42.8283C37.5175 42.1531 38.4183 41.5042 39.3278 40.8729C39.6164 40.6712 39.6864 40.4695 39.5814 40.1363C39.3628 39.4085 39.1879 38.6719 38.9955 37.9354C38.9692 37.8301 38.9518 37.7161 38.9168 37.5232C39.4327 37.4969 39.9225 37.4619 40.4122 37.4706C40.4997 37.4706 40.6308 37.6548 40.6658 37.7688C40.9632 38.8385 41.2517 39.9083 41.5054 40.9869C41.5403 41.1272 41.4267 41.3814 41.2955 41.4779C39.7301 42.6441 38.1472 43.7928 36.5643 44.924C36.4506 45.0029 36.1883 45.0204 36.0746 44.9415C33.7396 43.4509 31.4221 41.9426 29.1046 40.4257C28.9997 40.3555 28.8773 40.1801 28.9035 40.0925C29.1659 39.1717 29.4544 38.2598 29.7518 37.2602Z" fill="#1DB45F"/>
<path d="M36.2051 23.5264C36.3888 22.9652 36.52 22.5092 36.7124 22.0708C36.7648 21.9568 37.0097 21.8691 37.1671 21.8603C38.0241 21.8165 38.0329 21.8252 38.2515 21.0097C38.6975 19.3262 39.126 17.6426 39.5895 15.9678C39.6857 15.6258 39.607 15.4329 39.3272 15.24C38.4002 14.5911 37.4732 13.9159 36.5724 13.2319C36.3363 13.0566 36.1789 13.0741 35.9603 13.2232C35.2082 13.723 34.4473 14.2053 33.6253 14.7314C33.4242 14.214 33.2318 13.7493 33.0743 13.267C33.0569 13.2056 33.1531 13.0566 33.2318 13.0039C34.1937 12.3726 35.1557 11.7413 36.1352 11.1275C36.2314 11.0661 36.45 11.0836 36.5549 11.1538C38.1378 12.2937 39.712 13.4511 41.3036 14.5911C41.5397 14.7664 41.5922 14.9331 41.5135 15.2224C40.8139 17.8267 40.123 20.4398 39.4409 23.0528C39.3534 23.3861 39.2047 23.4913 38.8724 23.4825C38.1903 23.465 37.4994 23.5 36.8173 23.5088C36.6337 23.5264 36.4675 23.5264 36.2051 23.5264Z" fill="#04644C"/>
<path d="M21.181 21.6151C20.595 21.6151 20.0878 21.6239 19.5893 21.6063C19.5019 21.6063 19.3882 21.4573 19.3357 21.352C19.2395 21.1591 19.1696 20.9487 19.1171 20.7382C19.0471 20.4927 18.9072 20.4226 18.6623 20.4401C16.7297 20.5453 14.797 20.6506 12.8643 20.747C12.5932 20.7645 12.4532 20.861 12.3745 21.1328C12.0335 22.2465 11.6662 23.3601 11.2989 24.4649C11.2114 24.728 11.2551 24.8946 11.4738 25.07C12.1821 25.6312 12.873 26.2099 13.6426 26.8325C13.2141 27.1832 12.8293 27.4989 12.4183 27.797C12.357 27.8409 12.1734 27.7795 12.0859 27.7093C11.2114 27.0078 10.3369 26.3063 9.47987 25.5785C9.37492 25.4909 9.30496 25.2629 9.34869 25.1401C9.94336 23.2461 10.5555 21.3608 11.1852 19.4756C11.2289 19.344 11.43 19.1774 11.57 19.1686C14.3335 19.002 17.0969 18.853 19.8517 18.7039C19.9741 18.6951 20.1753 18.7653 20.2102 18.8442C20.5513 19.7298 20.8486 20.6418 21.181 21.6151Z" fill="#1DB45F"/>
<path d="M31.9898 19.5728C31.8149 19.0116 31.6487 18.5381 31.5438 18.0383C31.5175 17.9155 31.6837 17.7138 31.8149 17.6086C32.5582 17.0123 32.532 17.2842 32.1647 16.3108C31.57 14.7237 30.9491 13.1541 30.3544 11.567C30.2057 11.1549 30.0134 10.9707 29.5411 10.9883C28.4654 11.0321 27.3898 11.0146 26.3054 10.997C25.9906 10.9883 25.8331 11.1023 25.7282 11.3916C25.4833 12.0931 25.2035 12.7858 24.9411 13.4786C24.8887 13.6189 24.8187 13.7592 24.7312 13.9521C24.2852 13.6627 23.8742 13.4084 23.4982 13.1278C23.4282 13.0752 23.402 12.8648 23.4457 12.7595C23.8392 11.7073 24.2415 10.6551 24.6613 9.62035C24.7137 9.48882 24.9324 9.34852 25.0723 9.34852C27.04 9.33098 29.0077 9.33098 30.9666 9.34852C31.1065 9.34852 31.3251 9.49759 31.3689 9.62912C32.3833 12.2071 33.3715 14.7939 34.3597 17.3894C34.4035 17.5122 34.3597 17.7577 34.2723 17.8366C33.5464 18.4066 32.8031 18.9502 31.9898 19.5728Z" fill="#1DB45F"/>
<path d="M22.5094 15.1348C22.9816 15.4329 23.4101 15.696 23.8124 15.9941C23.8736 16.038 23.8299 16.2835 23.7862 16.4238C23.5413 17.1165 23.5325 17.1165 24.1097 17.555C25.3078 18.4581 26.5059 19.3613 27.6953 20.2732C27.9226 20.4486 28.0975 20.4311 28.3074 20.2645C28.701 19.9488 29.112 19.6507 29.6017 19.2736C29.7766 19.8436 29.9515 20.3434 30.0827 20.852C30.1002 20.9309 29.9778 21.08 29.8903 21.1501C29.3569 21.571 28.7972 21.9831 28.2637 22.404C28.0713 22.5531 27.9139 22.5443 27.7215 22.3953C25.7538 20.8958 23.7774 19.4051 21.8097 17.9057C21.7048 17.818 21.5911 17.5988 21.6261 17.4936C21.8884 16.7132 22.1945 15.9591 22.5094 15.1348Z" fill="#1DB45F"/>
<path d="M26.3921 36.838C26.2172 36.2768 26.0597 35.7945 25.9286 35.3035C25.9023 35.2158 25.9898 35.0492 26.0772 34.9878C26.6282 34.5581 27.1966 34.146 27.7476 33.7076C27.9487 33.5497 28.0974 33.576 28.2898 33.7251C30.2662 35.2246 32.2426 36.7152 34.2103 38.2147C34.324 38.3024 34.4114 38.5479 34.3764 38.6706C34.1228 39.416 33.8255 40.1438 33.5107 40.968C33.0384 40.6699 32.6099 40.3981 32.1814 40.1087C32.1289 40.0736 32.1377 39.9158 32.1639 39.8369C32.2164 39.6527 32.2863 39.4774 32.365 39.302C32.47 39.074 32.4088 38.9249 32.2164 38.7846C30.8958 37.7938 29.5841 36.8029 28.2723 35.8033C28.0711 35.6454 27.9225 35.6718 27.7301 35.8208C27.3103 36.154 26.8818 36.4609 26.3921 36.838Z" fill="#04644C"/>
<path d="M31.1344 14.3555C31.3268 14.8466 31.5105 15.2762 31.6592 15.7147C31.6941 15.8111 31.6242 15.9865 31.5367 16.0742C31.4056 16.2057 31.2394 16.3022 31.0732 16.3898C30.8459 16.5126 30.8284 16.6792 30.8983 16.8984C31.3706 18.4417 31.8516 19.9938 32.3063 21.5458C32.3938 21.8352 32.5337 21.9404 32.831 21.9316C33.3382 21.9053 33.8455 21.9229 34.4314 21.9229C34.2477 22.4578 34.0991 22.94 33.9067 23.4048C33.8717 23.4925 33.6706 23.5626 33.5481 23.5714C32.866 23.5977 32.1839 23.6152 31.493 23.5977C31.3618 23.5977 31.1432 23.4399 31.1082 23.3083C30.3649 20.9232 29.639 18.5382 28.9307 16.1531C28.8957 16.0216 28.9831 15.7673 29.0968 15.6883C29.744 15.2499 30.4086 14.829 31.1344 14.3555Z" fill="#04644C"/>
<path d="M15.9868 20.8253C16.529 20.799 16.9925 20.7639 17.4473 20.7639C17.5522 20.7639 17.6834 20.9042 17.7359 21.0094C17.8146 21.1585 17.8583 21.3426 17.8845 21.5092C17.9283 21.7635 18.0682 21.8337 18.3043 21.8337C19.9222 21.8512 21.5313 21.8775 23.1492 21.9214C23.4815 21.9301 23.6214 21.8074 23.7001 21.5092C23.8225 21.0357 23.9799 20.5622 24.1549 19.9835C24.6358 20.343 25.0556 20.6587 25.4666 20.9919C25.5191 21.0357 25.5191 21.1848 25.4929 21.2725C25.2917 21.974 25.0906 22.6755 24.8457 23.3594C24.802 23.4822 24.5396 23.6049 24.3822 23.6049C22.537 23.5874 20.683 23.5436 18.8378 23.5173C18.2256 23.5085 17.6134 23.5085 17.0013 23.4822C16.8701 23.4734 16.6689 23.377 16.6427 23.2805C16.4241 22.5001 16.2229 21.7109 15.9868 20.8253Z" fill="#04644C"/>
<path d="M14.0454 29.2972C14.5177 28.9114 14.9374 28.5782 15.3572 28.2362C15.5408 28.3677 15.7157 28.4642 15.8382 28.5957C16.118 28.9026 16.3541 28.8938 16.6865 28.6483C17.9545 27.7276 19.2488 26.8244 20.5431 25.93C20.7617 25.781 20.8142 25.6231 20.7268 25.3776C20.5519 24.8865 20.3857 24.3955 20.202 23.8343C20.7792 23.8343 21.2952 23.8255 21.8112 23.8431C21.8986 23.8431 22.0123 24.0009 22.0473 24.1061C22.2834 24.7638 22.5195 25.4214 22.7207 26.0966C22.7556 26.2194 22.6857 26.4474 22.5807 26.5175C20.5431 27.9731 18.488 29.4112 16.4329 30.8405C16.3279 30.9106 16.1005 30.9545 16.0218 30.8843C15.3747 30.3933 14.745 29.8759 14.0454 29.2972Z" fill="#1DB45F"/>
<path d="M41.9504 26.8165C41.5219 27.1672 41.1721 27.4741 40.7873 27.7372C40.6998 27.7986 40.4637 27.746 40.3588 27.667C39.7291 27.2111 39.7291 27.2023 39.0907 27.6495C37.8839 28.4913 36.6858 29.3506 35.4789 30.1837C35.2428 30.3503 35.1991 30.5081 35.2953 30.7624C35.4702 31.2359 35.6276 31.7182 35.8113 32.2794C35.2428 32.2794 34.7269 32.2969 34.2109 32.2618C34.1147 32.2531 33.9923 32.0865 33.9485 31.9637C33.7124 31.3323 33.5113 30.6922 33.2839 30.0609C33.1964 29.8241 33.2489 29.6926 33.4501 29.5523C35.4702 28.1406 37.4816 26.7288 39.493 25.2995C39.7379 25.1241 39.9128 25.1329 40.1401 25.3258C40.7173 25.8256 41.312 26.2904 41.9504 26.8165Z" fill="#04644C"/>
<path d="M19.1769 29.2278C19.6579 28.8859 20.0514 28.5965 20.4712 28.3247C20.5499 28.272 20.7336 28.2984 20.821 28.351C21.4244 28.7543 22.0279 29.1665 22.605 29.6137C22.7012 29.6838 22.7187 29.9556 22.675 30.0959C22.1678 31.6217 21.6431 33.1387 21.1271 34.6556C20.856 35.4448 20.5761 36.2252 20.3313 37.0232C20.2263 37.3476 20.0689 37.4528 19.7366 37.4265C19.002 37.3564 18.2587 37.3301 17.4541 37.2775C17.594 36.7601 17.7077 36.2866 17.8564 35.8131C17.8826 35.7342 18.0225 35.664 18.1187 35.6553C18.2936 35.6377 18.4685 35.6465 18.6435 35.6728C18.9233 35.7166 19.0545 35.6027 19.1507 35.3308C19.6579 33.8051 20.1739 32.2881 20.7073 30.7711C20.8035 30.4905 20.7685 30.3151 20.5062 30.1485C20.0777 29.8767 19.6666 29.5786 19.1769 29.2278Z" fill="#04644C"/>
<path d="M38.5588 18.8351C38.4101 19.37 38.3139 19.826 38.1565 20.2556C38.1128 20.3608 37.8679 20.4398 37.7105 20.4398C36.9934 20.4398 36.9934 20.4222 36.7573 21.1062C36.2763 22.5004 35.8041 23.8946 35.3143 25.2888C35.2006 25.5957 35.2356 25.7886 35.5417 25.9728C35.9615 26.2271 36.3463 26.5428 36.8273 26.8847C36.3375 27.2267 35.909 27.5336 35.463 27.823C35.4105 27.8581 35.2619 27.8142 35.1919 27.7704C34.5885 27.3582 33.9851 26.9461 33.4079 26.5164C33.3204 26.4463 33.2592 26.2271 33.2942 26.1131C34.0987 23.7368 34.9121 21.3605 35.7341 18.9929C35.7778 18.8702 35.944 18.7036 36.0489 18.7123C36.8535 18.7211 37.6668 18.7825 38.5588 18.8351Z" fill="#1DB45F"/>
<path d="M24.8643 41.7495C24.6719 41.241 24.4883 40.785 24.3309 40.3202C24.3046 40.2501 24.3833 40.101 24.4533 40.0396C24.6107 39.9081 24.8119 39.838 24.9518 39.6889C25.048 39.5837 25.1442 39.382 25.1092 39.268C24.637 37.6721 24.1472 36.085 23.6662 34.4891C23.5963 34.2523 23.4651 34.1734 23.2202 34.1822C22.6955 34.1997 22.1795 34.1822 21.5674 34.1822C21.751 33.6561 21.891 33.1738 22.0834 32.709C22.1183 32.6126 22.3107 32.5424 22.4419 32.5424C23.1153 32.5161 23.7799 32.5161 24.4533 32.4986C24.7157 32.4898 24.8381 32.595 24.9168 32.8493C25.6252 35.1993 26.3335 37.5406 27.0594 39.8906C27.1468 40.1712 27.0944 40.3465 26.8408 40.5044C26.1936 40.8814 25.5639 41.2936 24.8643 41.7495Z" fill="#1DB45F"/>
<path d="M31.8418 36.1107C31.3609 35.7512 30.9586 35.4706 30.5825 35.155C30.5126 35.0936 30.4776 34.9182 30.5038 34.813C30.6962 34.129 30.9149 33.4451 31.1072 32.7611C31.1947 32.463 31.4046 32.4893 31.6232 32.4893C33.416 32.5244 35.2 32.5507 36.9928 32.5857C37.6487 32.5945 38.3046 32.6033 38.9605 32.6033C39.2053 32.6033 39.3278 32.6734 39.389 32.9277C39.5551 33.6117 39.7388 34.2869 39.9224 34.962C39.9924 35.2076 39.9137 35.3216 39.6601 35.3216C39.5289 35.3216 39.3977 35.3303 39.2665 35.3303C38.3745 35.3566 38.3833 35.3566 38.0772 34.5411C38.0335 34.4272 37.8586 34.2869 37.7449 34.2869C36.0745 34.243 34.3954 34.2079 32.7251 34.1992C32.5852 34.1992 32.384 34.3921 32.3228 34.5411C32.1479 35.0147 32.0167 35.5232 31.8418 36.1107Z" fill="#1DB45F"/>
</g>
</g>
<defs>
<clipPath id="clip0_2160_10507">
<rect width="56" height="56" fill="white"/>
</clipPath>
<clipPath id="clip1_2160_10507">
<rect width="37.3333" height="37.3333" fill="white" transform="translate(9.33301 9.33305)"/>
</clipPath>
</defs>
</svg>
