<svg width="1179" height="512" viewBox="0 0 1179 512" fill="none" xmlns="http://www.w3.org/2000/svg">
<g clip-path="url(#clip0_2012_613)">
<path d="M193.824 248.281C190.406 250.686 187.647 252.791 184.649 254.534C183.989 254.895 182.43 254.234 181.531 253.632C175.474 249.604 177.573 249.724 172.116 254.053C163.061 261.269 154.186 268.725 145.071 275.94C142.792 277.744 142.072 279.367 143.092 282.253C145.61 289.228 147.889 296.263 149.988 303.358C150.708 305.763 151.967 306.425 154.246 306.485C159.223 306.665 164.2 306.966 169.237 307.267C170.197 307.327 171.156 307.507 172.536 307.627C171.636 311.115 170.917 314.302 169.957 317.428C169.777 318.03 168.398 318.631 167.618 318.571C159.943 318.21 152.267 317.849 144.591 317.248C143.691 317.188 142.372 316.166 142.132 315.324C137.815 302.396 133.617 289.469 129.539 276.481C129.239 275.579 129.779 273.835 130.559 273.234C145.131 261.209 159.763 249.243 174.455 237.398C175.174 236.857 176.733 236.376 177.273 236.736C182.67 240.404 187.947 244.132 193.824 248.281Z" fill="#04644C"/>
<path d="M279.704 352.97C282.882 355.014 285.581 356.637 288.159 358.501C288.699 358.922 288.999 360.305 288.759 361.027C286.06 368.362 283.242 375.638 280.364 382.853C280.004 383.695 278.684 384.597 277.785 384.597C264.172 384.717 250.62 384.657 237.007 384.717C234.728 384.717 234.429 383.154 233.889 381.711C228.672 368.182 223.455 354.593 218.297 341.064C216.858 337.336 215.479 333.548 213.92 329.88C213.2 328.137 213.38 326.994 214.999 325.852C219.917 322.304 224.714 318.576 230.051 314.548C231.25 318.396 232.45 321.763 233.229 325.19C233.409 325.912 232.15 327.175 231.31 327.896C226.693 331.684 226.753 331.624 228.972 337.336C233.289 348.4 237.607 359.524 241.745 370.707C242.524 372.752 243.544 373.413 245.702 373.353C253.318 373.233 260.874 373.173 268.49 373.413C271.189 373.473 272.388 372.511 273.227 370.046C275.146 364.394 277.365 358.982 279.704 352.97Z" fill="#04644C"/>
<path d="M182.62 191.341C178.902 191.522 175.544 191.822 172.186 191.822C171.586 191.822 170.687 190.62 170.447 189.778C168.468 182.563 166.609 175.287 164.63 168.012C164.15 166.268 164.63 165.246 166.009 164.224C176.863 156.407 187.717 148.53 198.512 140.593C199.891 139.571 200.91 139.751 202.23 140.593C217.881 150.815 233.532 160.977 249.244 171.078C250.983 172.16 251.463 173.303 250.803 175.287C249.244 180.037 247.865 184.847 246.365 189.658C246.066 190.68 245.586 191.642 245.046 193.085C241.928 190.74 239.049 188.756 236.471 186.471C235.931 186.05 236.111 184.427 236.411 183.525C238.03 177.572 238.03 177.572 232.933 174.265C222.978 167.771 212.964 161.337 203.009 154.783C201.27 153.641 200.071 153.521 198.272 154.904C192.155 159.594 185.918 164.103 179.622 168.493C177.643 169.876 177.223 171.258 177.883 173.543C179.562 179.256 181.001 185.028 182.62 191.341Z" fill="#04644C"/>
<path d="M218.893 347.797C220.212 351.284 221.532 354.411 222.551 357.598C222.731 358.139 222.011 359.281 221.412 359.642C214.935 363.911 208.399 368.18 201.743 372.269C201.023 372.75 199.344 372.63 198.624 372.089C187.65 364.212 176.736 356.275 165.942 348.218C165.103 347.617 164.503 345.753 164.743 344.791C169.48 326.452 174.338 308.173 179.255 289.894C179.495 288.992 180.454 287.669 181.114 287.669C187.59 287.489 194.067 287.549 201.203 287.549C199.944 291.216 198.804 294.524 197.485 297.831C197.245 298.372 196.046 298.733 195.266 298.853C193.707 299.033 192.028 298.732 190.469 299.033C189.629 299.214 188.43 300.055 188.25 300.837C184.652 313.945 181.114 327.113 177.756 340.281C177.516 341.243 178.295 343.047 179.135 343.708C185.611 348.579 192.208 353.269 198.684 358.079C200.183 359.161 201.263 359.101 202.702 358.139C207.08 355.193 211.577 352.367 216.015 349.481C216.794 349 217.634 348.518 218.893 347.797Z" fill="#1DB45F"/>
<path d="M304.111 300.529C308.129 300.529 311.427 300.348 314.666 300.649C315.565 300.709 316.644 302.152 317.004 303.174C319.163 308.586 319.103 308.706 324.86 308.405C336.913 307.804 349.027 307.143 361.08 306.541C362.999 306.481 363.839 305.7 364.438 303.836C366.837 296.079 369.356 288.383 371.934 280.686C372.474 279.063 372.114 278.101 370.855 277.079C365.938 273.17 361.14 269.142 355.803 264.752C358.741 262.347 361.38 260.123 364.139 258.078C364.498 257.778 365.638 258.198 366.177 258.559C372.294 263.43 378.351 268.3 384.287 273.351C384.947 273.952 385.367 275.575 385.127 276.417C381.049 289.405 376.792 302.332 372.654 315.32C372.054 317.244 370.675 317.244 369.176 317.364C353.524 318.206 337.873 319.048 322.161 319.95C319.163 320.13 316.165 320.371 313.166 320.431C312.327 320.431 310.888 320.01 310.708 319.469C308.429 313.396 306.39 307.143 304.111 300.529Z" fill="#04644C"/>
<path d="M320.836 264.399C324.194 262.054 327.073 259.889 330.131 258.145C330.79 257.785 332.35 258.506 333.249 259.107C337.987 262.294 337.987 262.354 342.364 258.807C351.839 251.11 361.254 243.354 370.729 235.718C372.168 234.515 372.528 233.493 371.868 231.629C369.289 224.173 366.891 216.597 364.612 209.081C363.952 206.976 362.933 206.195 360.834 206.135C354.777 205.894 348.721 205.533 342.124 205.112C343.084 201.445 343.863 198.077 344.883 194.77C345.063 194.289 346.322 193.868 347.102 193.929C354.657 194.289 362.273 194.831 369.829 195.191C371.688 195.251 372.408 196.093 372.947 197.717C376.965 210.223 380.983 222.67 385.061 235.116C385.72 237.161 385.481 238.483 383.622 239.987C369.229 251.591 354.897 263.256 340.625 275.041C339.066 276.364 337.927 276.544 336.248 275.282C331.33 271.674 326.293 268.247 320.836 264.399Z" fill="#1DB45F"/>
<path d="M269.334 319.477C272.572 321.942 275.51 323.866 278.029 326.211C278.689 326.812 278.329 328.796 278.029 330.059C276.71 335.11 276.65 335.11 281.027 337.936C291.162 344.55 301.356 351.044 311.371 357.778C313.35 359.101 314.669 359.101 316.588 357.658C322.585 353.028 328.761 348.579 334.998 344.249C336.977 342.866 337.456 341.483 336.737 339.199C335.238 334.208 334.038 329.157 332.719 324.106C332.539 323.385 332.419 322.603 332.179 321.28C335.717 321.1 339.076 320.86 342.434 320.92C343.033 320.92 343.933 322.182 344.173 322.964C346.212 330.3 348.191 337.635 349.93 345.031C350.169 345.993 349.39 347.737 348.49 348.398C337.756 356.395 326.902 364.272 316.048 372.028C315.269 372.57 313.47 372.69 312.69 372.149C296.679 361.927 280.787 351.585 264.896 341.183C264.176 340.702 263.337 339.499 263.517 338.898C265.316 332.584 267.295 326.331 269.334 319.477Z" fill="#1DB45F"/>
<path d="M313.588 225.317C314.847 221.469 315.747 218.343 317.066 215.336C317.426 214.554 319.105 213.953 320.184 213.893C326.061 213.592 326.121 213.653 327.62 208.061C330.679 196.516 333.617 184.971 336.795 173.487C337.455 171.142 336.915 169.819 334.996 168.496C328.64 164.047 322.283 159.417 316.107 154.727C314.488 153.525 313.408 153.645 311.909 154.667C306.752 158.094 301.535 161.401 295.898 165.009C294.518 161.461 293.199 158.275 292.12 154.968C292 154.547 292.659 153.525 293.199 153.164C299.796 148.835 306.392 144.505 313.108 140.296C313.768 139.875 315.267 139.996 315.987 140.477C326.841 148.293 337.635 156.23 348.549 164.047C350.168 165.25 350.528 166.392 349.988 168.376C345.191 186.234 340.453 204.152 335.776 222.07C335.176 224.355 334.157 225.077 331.878 225.017C327.201 224.896 322.463 225.137 317.786 225.197C316.526 225.317 315.387 225.317 313.588 225.317Z" fill="#04644C"/>
<path d="M210.558 212.204C206.541 212.204 203.063 212.264 199.644 212.144C199.045 212.144 198.265 211.122 197.905 210.4C197.246 209.077 196.766 207.634 196.406 206.191C195.926 204.508 194.967 204.027 193.288 204.147C180.035 204.868 166.782 205.59 153.53 206.251C151.671 206.372 150.711 207.033 150.171 208.897C147.833 216.533 145.314 224.169 142.795 231.746C142.196 233.549 142.496 234.692 143.995 235.894C148.852 239.743 153.59 243.711 158.867 247.98C155.928 250.385 153.29 252.55 150.471 254.594C150.052 254.895 148.792 254.474 148.193 253.993C142.196 249.183 136.199 244.372 130.322 239.382C129.603 238.78 129.123 237.217 129.423 236.375C133.501 223.388 137.698 210.46 142.016 197.533C142.316 196.631 143.695 195.488 144.654 195.428C163.604 194.286 182.554 193.264 201.443 192.241C202.283 192.181 203.662 192.662 203.902 193.203C206.241 199.276 208.28 205.53 210.558 212.204Z" fill="#1DB45F"/>
<path d="M284.682 198.195C283.482 194.346 282.343 191.099 281.623 187.672C281.444 186.83 282.583 185.447 283.482 184.726C288.58 180.637 288.4 182.501 285.881 175.827C281.803 164.944 277.546 154.181 273.468 143.298C272.449 140.472 271.129 139.209 267.891 139.329C260.515 139.63 253.139 139.51 245.703 139.389C243.544 139.329 242.465 140.111 241.745 142.095C240.066 146.905 238.147 151.655 236.348 156.406C235.988 157.368 235.509 158.33 234.909 159.653C231.851 157.668 229.032 155.925 226.454 154C225.974 153.64 225.794 152.197 226.094 151.475C228.792 144.26 231.551 137.044 234.429 129.949C234.789 129.047 236.288 128.085 237.248 128.085C250.74 127.965 264.233 127.965 277.666 128.085C278.625 128.085 280.124 129.107 280.424 130.009C287.38 147.687 294.157 165.425 300.933 183.223C301.233 184.064 300.933 185.748 300.333 186.289C295.356 190.198 290.259 193.925 284.682 198.195Z" fill="#1DB45F"/>
<path d="M219.677 167.768C222.915 169.812 225.854 171.616 228.612 173.66C229.032 173.961 228.732 175.644 228.432 176.606C226.753 181.357 226.693 181.357 230.651 184.363C238.867 190.556 247.082 196.749 255.238 203.003C256.797 204.205 257.996 204.085 259.435 202.942C262.134 200.778 264.952 198.734 268.311 196.148C269.51 200.056 270.709 203.484 271.609 206.971C271.729 207.512 270.889 208.534 270.289 209.015C266.631 211.902 262.794 214.728 259.136 217.614C257.816 218.636 256.737 218.576 255.418 217.554C241.925 207.272 228.372 197.05 214.88 186.768C214.16 186.167 213.381 184.664 213.62 183.942C215.419 178.591 217.518 173.42 219.677 167.768Z" fill="#1DB45F"/>
<path d="M246.306 316.59C245.107 312.742 244.028 309.435 243.128 306.068C242.948 305.467 243.548 304.324 244.148 303.903C247.926 300.957 251.823 298.131 255.601 295.125C256.981 294.042 258 294.223 259.319 295.245C272.872 305.527 286.424 315.749 299.917 326.03C300.697 326.632 301.296 328.315 301.056 329.157C299.317 334.268 297.279 339.259 295.12 344.911C291.881 342.866 288.943 341.002 286.005 339.018C285.645 338.778 285.705 337.695 285.885 337.154C286.245 335.891 286.724 334.689 287.264 333.486C287.984 331.923 287.564 330.901 286.245 329.939C277.19 323.144 268.194 316.35 259.199 309.495C257.82 308.413 256.801 308.593 255.481 309.616C252.603 311.9 249.665 314.005 246.306 316.59Z" fill="#04644C"/>
<path d="M278.808 162.422C280.127 165.789 281.386 168.735 282.406 171.742C282.646 172.403 282.166 173.606 281.566 174.207C280.667 175.109 279.527 175.77 278.388 176.372C276.829 177.213 276.709 178.356 277.189 179.859C280.427 190.442 283.725 201.084 286.843 211.727C287.443 213.711 288.403 214.433 290.441 214.372C293.92 214.192 297.398 214.312 301.415 214.312C300.156 217.98 299.137 221.287 297.817 224.474C297.578 225.075 296.198 225.556 295.359 225.616C290.681 225.797 286.004 225.917 281.266 225.797C280.367 225.797 278.868 224.714 278.628 223.813C273.531 207.458 268.553 191.103 263.696 174.748C263.456 173.846 264.056 172.102 264.835 171.561C269.273 168.555 273.831 165.669 278.808 162.422Z" fill="#04644C"/>
<path d="M174.943 206.788C178.661 206.608 181.84 206.367 184.958 206.367C185.677 206.367 186.577 207.329 186.937 208.051C187.477 209.073 187.776 210.335 187.956 211.478C188.256 213.222 189.216 213.703 190.835 213.703C201.929 213.823 212.963 214.003 224.057 214.304C226.335 214.364 227.295 213.522 227.834 211.478C228.674 208.231 229.753 204.984 230.953 201.016C234.251 203.481 237.129 205.645 239.948 207.93C240.308 208.231 240.308 209.253 240.128 209.854C238.748 214.665 237.369 219.475 235.69 224.165C235.39 225.007 233.591 225.848 232.512 225.848C219.859 225.728 207.146 225.428 194.493 225.247C190.295 225.187 186.097 225.187 181.9 225.007C181 224.947 179.621 224.285 179.441 223.624C177.942 218.272 176.562 212.861 174.943 206.788Z" fill="#04644C"/>
<path d="M161.623 264.877C164.861 262.232 167.74 259.947 170.618 257.602C171.877 258.504 173.077 259.165 173.916 260.067C175.835 262.171 177.454 262.111 179.733 260.428C188.428 254.114 197.304 247.921 206.179 241.788C207.678 240.766 208.038 239.683 207.438 238C206.239 234.633 205.099 231.266 203.84 227.417C207.798 227.417 211.336 227.357 214.874 227.478C215.474 227.478 216.253 228.56 216.493 229.281C218.112 233.791 219.731 238.301 221.111 242.93C221.35 243.772 220.871 245.336 220.151 245.817C206.179 255.798 192.086 265.659 177.994 275.46C177.274 275.941 175.715 276.241 175.176 275.76C170.738 272.393 166.42 268.846 161.623 264.877Z" fill="#1DB45F"/>
<path d="M352.984 247.863C350.046 250.268 347.647 252.372 345.009 254.176C344.409 254.597 342.79 254.236 342.07 253.695C337.752 250.568 337.752 250.508 333.375 253.575C325.099 259.347 316.884 265.24 308.608 270.952C306.989 272.094 306.689 273.177 307.349 274.92C308.548 278.167 309.628 281.474 310.887 285.322C306.989 285.322 303.451 285.443 299.913 285.202C299.254 285.142 298.414 284 298.114 283.158C296.495 278.829 295.116 274.439 293.557 270.11C292.957 268.487 293.317 267.585 294.696 266.623C308.548 256.942 322.341 247.261 336.133 237.461C337.812 236.258 339.012 236.318 340.571 237.641C344.529 241.068 348.607 244.255 352.984 247.863Z" fill="#04644C"/>
<path d="M196.829 264.398C200.127 262.053 202.826 260.068 205.704 258.204C206.244 257.844 207.503 258.024 208.103 258.385C212.241 261.151 216.378 263.977 220.336 267.043C220.996 267.524 221.116 269.388 220.816 270.35C217.338 280.813 213.74 291.215 210.202 301.617C208.343 307.028 206.424 312.38 204.745 317.851C204.025 320.076 202.946 320.798 200.667 320.617C195.63 320.136 190.533 319.956 185.016 319.595C185.975 316.048 186.755 312.801 187.774 309.554C187.954 309.013 188.913 308.532 189.573 308.471C190.772 308.351 191.972 308.411 193.171 308.592C195.09 308.892 195.99 308.111 196.649 306.247C200.127 295.784 203.665 285.382 207.323 274.98C207.983 273.056 207.743 271.854 205.944 270.711C203.006 268.847 200.187 266.803 196.829 264.398Z" fill="#04644C"/>
<path d="M329.714 193.153C328.694 196.82 328.035 199.947 326.955 202.893C326.655 203.615 324.976 204.156 323.897 204.156C318.98 204.156 318.98 204.036 317.361 208.726C314.062 218.286 310.824 227.847 307.466 237.407C306.686 239.511 306.926 240.834 309.025 242.097C311.904 243.841 314.542 246.005 317.84 248.35C314.482 250.695 311.544 252.8 308.485 254.784C308.126 255.024 307.106 254.724 306.626 254.423C302.489 251.597 298.351 248.771 294.393 245.825C293.793 245.344 293.374 243.841 293.614 243.059C299.131 226.764 304.707 210.47 310.344 194.235C310.644 193.393 311.784 192.251 312.503 192.311C318.02 192.371 323.597 192.792 329.714 193.153Z" fill="#1DB45F"/>
<path d="M235.813 350.259C234.493 346.771 233.234 343.645 232.155 340.458C231.975 339.977 232.515 338.955 232.994 338.534C234.074 337.632 235.453 337.151 236.412 336.129C237.072 335.407 237.732 334.024 237.492 333.243C234.254 322.299 230.895 311.416 227.597 300.473C227.117 298.849 226.218 298.308 224.539 298.368C220.941 298.489 217.403 298.368 213.205 298.368C214.464 294.761 215.424 291.454 216.743 288.267C216.983 287.605 218.302 287.124 219.202 287.124C223.819 286.944 228.377 286.944 232.994 286.824C234.793 286.764 235.633 287.485 236.173 289.229C241.03 305.343 245.887 321.397 250.864 337.512C251.464 339.436 251.104 340.638 249.365 341.721C244.928 344.306 240.61 347.132 235.813 350.259Z" fill="#1DB45F"/>
<path d="M283.664 311.604C280.366 309.139 277.608 307.215 275.029 305.051C274.549 304.63 274.31 303.427 274.489 302.706C275.809 298.016 277.308 293.326 278.627 288.636C279.227 286.591 280.666 286.772 282.165 286.772C294.459 287.012 306.692 287.193 318.985 287.433C323.483 287.493 327.98 287.553 332.478 287.553C334.157 287.553 334.996 288.034 335.416 289.778C336.555 294.468 337.815 299.098 339.074 303.728C339.554 305.411 339.014 306.193 337.275 306.193C336.376 306.193 335.476 306.253 334.577 306.253C328.46 306.433 328.52 306.433 326.421 300.842C326.121 300.06 324.922 299.098 324.142 299.098C312.689 298.797 301.175 298.557 289.721 298.497C288.762 298.497 287.382 299.819 286.963 300.842C285.763 304.089 284.864 307.576 283.664 311.604Z" fill="#1DB45F"/>
</g>
<path d="M486.692 321.602C487.092 321.602 487.293 321.869 487.293 322.403V324.806C487.293 325.34 487.092 325.607 486.692 325.607H439.938C439.404 325.607 439.137 325.34 439.137 324.806V322.403C439.137 321.869 439.404 321.602 439.938 321.602C450.884 321.602 456.824 316.897 457.758 307.486C458.025 304.75 458.292 300.211 458.559 293.87C458.893 287.463 459.794 273.747 461.262 252.723C462.731 231.631 463.465 214.578 463.465 201.563V197.859C463.465 195.189 461.93 192.953 458.86 191.151C455.856 189.349 453.654 188.448 452.252 188.448C450.85 188.448 450.149 188.181 450.149 187.647V185.244C450.149 184.71 450.416 184.443 450.95 184.443H479.884C481.152 184.644 482.187 185.378 482.988 186.646L529.942 291.267C530.276 291.734 530.543 292.135 530.743 292.469C530.943 292.802 531.444 292.969 532.245 292.969C533.046 292.902 533.646 292.302 534.047 291.167L580.501 188.448C581.902 185.778 583.17 184.443 584.305 184.443H613.439C613.973 184.443 614.24 184.71 614.24 185.244V187.647C614.24 188.181 614.073 188.448 613.739 188.448C611.737 188.448 609.267 189.115 606.331 190.45C601.859 192.453 599.623 195.423 599.623 199.361L605.63 309.989C605.763 313.46 607.565 316.263 611.036 318.399C614.507 320.535 619.045 321.602 624.652 321.602C625.186 321.602 625.453 321.869 625.453 322.403V324.806C625.453 325.34 625.186 325.607 624.652 325.607H567.786C567.252 325.607 566.985 325.34 566.985 324.806V322.403C566.985 321.869 567.252 321.602 567.786 321.602C579.733 321.602 585.707 318.699 585.707 312.892L580.401 217.281C580.334 216.614 580.134 216.28 579.8 216.28C579.533 216.28 579.299 216.581 579.099 217.181L529.341 324.906C529.074 325.373 528.307 325.607 527.039 325.607C525.771 325.607 525.036 325.34 524.836 324.806L475.779 216.881C475.379 215.947 474.978 215.479 474.578 215.479C474.244 215.479 474.077 216.214 474.077 217.682C474.077 220.752 473.276 235.236 471.674 261.132C470.073 287.029 469.272 303.181 469.272 309.589V313.693C470.073 317.498 473.844 319.967 480.585 321.102C482.52 321.436 484.556 321.602 486.692 321.602Z" fill="#000A07"/>
<path d="M671.39 200.462C671.39 192.453 666.785 188.448 657.574 188.448C656.106 188.448 655.372 188.181 655.372 187.647V185.244C655.372 184.71 655.638 184.443 656.172 184.443H706.331C706.865 184.443 707.132 184.71 707.132 185.244V187.647C707.132 188.181 705.663 188.448 702.726 188.448C699.79 188.448 697.087 189.382 694.617 191.251C692.147 193.12 690.913 196.958 690.913 202.765V309.589C690.913 317.598 695.551 321.602 704.829 321.602C706.23 321.602 706.931 321.869 706.931 322.403V324.806C706.931 325.34 706.664 325.607 706.13 325.607H655.972C655.438 325.607 655.171 325.34 655.171 324.806V322.403C655.171 321.869 656.64 321.602 659.576 321.602C662.513 321.602 665.216 320.668 667.686 318.799C670.155 316.93 671.39 313.093 671.39 307.286V200.462Z" fill="#000A07"/>
<path d="M739.453 325.607C738.919 325.607 738.652 325.34 738.652 324.806V322.403C738.652 321.869 738.986 321.602 739.653 321.602H741.956C745.627 321.602 748.13 321.269 749.465 320.601C754.404 318.198 756.873 311.591 756.873 300.778V196.758C756.873 192.286 752.535 189.616 743.858 188.748C741.923 188.548 740.554 188.448 739.753 188.448C739.019 188.448 738.652 188.181 738.652 187.647V185.244C738.652 184.71 738.919 184.443 739.453 184.443H776.096L871.106 289.465C871.439 289.799 871.673 290.066 871.807 290.266C871.94 290.4 872.14 290.466 872.407 290.466C872.741 290.466 872.908 290.166 872.908 289.565V220.585C872.908 207.303 871.807 198.626 869.604 194.555C867.401 190.484 862.963 188.448 856.289 188.448H851.183C850.649 188.448 850.382 188.181 850.382 187.647V185.244C850.382 184.71 850.649 184.443 851.183 184.443H903.243C903.777 184.443 904.044 184.71 904.044 185.244V187.647C904.044 188.181 903.043 188.448 901.04 188.448C899.105 188.448 895.868 189.583 891.329 191.852C886.857 194.121 884.621 196.925 884.621 200.262V322.704C884.621 324.172 884.421 325.207 884.021 325.807C883.62 326.475 882.652 326.808 881.117 326.808C879.649 326.808 878.548 326.508 877.813 325.907C877.079 325.307 876.212 324.439 875.21 323.304L771.991 208.872C771.323 208.204 770.723 207.871 770.189 207.871C769.855 207.871 769.688 208.204 769.688 208.872V308.788C769.688 314.861 774.494 318.866 784.105 320.801C786.775 321.335 788.81 321.602 790.212 321.602C791.613 321.602 792.314 321.869 792.314 322.403V324.806C792.314 325.34 792.047 325.607 791.513 325.607H739.453Z" fill="#000A07"/>
<path d="M924.752 324.806V322.003C924.752 321.469 925.019 321.202 925.553 321.202H927.755C930.559 321.002 933.429 320.902 936.365 320.902C939.302 320.835 941.972 320.468 944.375 319.8C949.848 318.198 952.584 314.194 952.584 307.786V202.264C952.584 195.656 948.68 191.451 940.871 189.649C938.668 189.182 936.432 188.782 934.163 188.448H932.06C931.526 188.448 931.26 188.181 931.26 187.647V185.244C931.26 184.71 931.526 184.443 932.06 184.443H1027.27C1028.47 184.443 1029.34 184.677 1029.87 185.144C1030.41 185.545 1030.74 186.479 1030.88 187.947L1032.68 216.981C1032.68 217.649 1032.18 217.982 1031.18 217.982C1030.17 217.982 1029.44 217.682 1028.97 217.081C1028.57 216.414 1028.04 213.978 1027.37 209.773C1026.77 205.568 1025.64 202.064 1023.97 199.261C1022.3 196.457 1019.36 194.689 1015.16 193.954H973.408C972.541 193.954 972.107 194.388 972.107 195.256V247.016C972.107 247.683 972.441 248.017 973.108 248.017H1007.75C1016.69 248.017 1021.16 242.811 1021.16 232.399C1021.16 231.865 1021.43 231.598 1021.96 231.598H1024.37C1024.9 231.598 1025.17 231.865 1025.17 232.399V275.249C1025.17 275.783 1024.9 276.05 1024.37 276.05H1021.96C1021.43 276.05 1021.16 275.783 1021.16 275.249C1021.16 265.371 1018.29 259.664 1012.55 258.129C1010.95 257.728 1009.25 257.528 1007.45 257.528H973.108C972.441 257.528 972.107 257.862 972.107 258.529V307.286C972.107 312.292 974.41 315.128 979.015 315.796C980.35 315.996 981.751 316.096 983.22 316.096H1016.56C1023.43 316.096 1028.77 313.059 1032.58 306.985C1035.31 302.647 1036.98 297.675 1037.58 292.068C1037.78 290.199 1038.78 289.265 1040.59 289.265C1041.39 289.265 1041.79 289.699 1041.79 290.566L1038.48 324.205C1038.08 325.14 1037.62 325.607 1037.08 325.607H925.553C925.019 325.607 924.752 325.34 924.752 324.806Z" fill="#000A07"/>
<defs>
<clipPath id="clip0_2012_613">
<rect width="256" height="256" fill="white" transform="translate(129.332 128.008)"/>
</clipPath>
</defs>
</svg>
