<svg width="24" height="21" viewBox="0 0 24 21" fill="none" xmlns="http://www.w3.org/2000/svg">
<mask id="path-1-inside-1_2368_2752" fill="white">
<path d="M0.333496 7.65983C0.333496 13.3332 5.02283 16.3565 8.45552 19.0626C9.66683 20.0175 10.8335 20.9165 12.0002 20.9165C13.1668 20.9165 14.3335 20.0175 15.5448 19.0626C18.9775 16.3565 23.6668 13.3332 23.6668 7.65983C23.6668 1.9864 17.25 -2.03708 12.0002 3.41728C6.75035 -2.03708 0.333496 1.9864 0.333496 7.65983Z"/>
</mask>
<path d="M8.45552 19.0626L9.38414 17.8846L8.45552 19.0626ZM12.0002 3.41728L10.9194 4.45748C11.2022 4.75127 11.5924 4.91728 12.0002 4.91728C12.4079 4.91728 12.7981 4.75127 13.0809 4.45748L12.0002 3.41728ZM15.5448 19.0626L14.6162 17.8846H14.6162L15.5448 19.0626ZM8.45552 19.0626L9.38414 17.8846C7.57879 16.4614 5.71451 15.1509 4.22882 13.4779C2.79455 11.8629 1.8335 10.0284 1.8335 7.65983H0.333496H-1.1665C-1.1665 10.9647 0.217108 13.4785 1.98568 15.47C3.70282 17.4036 5.89955 18.9577 7.52689 20.2406L8.45552 19.0626ZM0.333496 7.65983H1.8335C1.8335 5.38431 3.11837 3.50849 4.82174 2.72987C6.43057 1.99447 8.67842 2.12915 10.9194 4.45748L12.0002 3.41728L13.0809 2.37708C10.0721 -0.748953 6.48661 -1.32971 3.57456 0.00140136C0.757054 1.28929 -1.1665 4.26191 -1.1665 7.65983H0.333496ZM8.45552 19.0626L7.52689 20.2406C8.11875 20.7071 8.79389 21.2373 9.48779 21.6427C10.1812 22.0479 11.036 22.4165 12.0002 22.4165V20.9165V19.4165C11.7976 19.4165 11.4858 19.3356 11.0014 19.0525C10.5174 18.7698 10.0036 18.3729 9.38414 17.8846L8.45552 19.0626ZM15.5448 19.0626L16.4734 20.2406C18.1008 18.9577 20.2975 17.4036 22.0146 15.47C23.7832 13.4785 25.1668 10.9647 25.1668 7.65983H23.6668H22.1668C22.1668 10.0284 21.2058 11.8629 19.7715 13.4779C18.2858 15.1509 16.4215 16.4614 14.6162 17.8846L15.5448 19.0626ZM23.6668 7.65983H25.1668C25.1668 4.26191 23.2433 1.28929 20.4258 0.00140136C17.5137 -1.32971 13.9282 -0.748953 10.9194 2.37708L12.0002 3.41728L13.0809 4.45748C15.3219 2.12915 17.5698 1.99447 19.1786 2.72987C20.882 3.50849 22.1668 5.38431 22.1668 7.65983H23.6668ZM15.5448 19.0626L14.6162 17.8846C13.9967 18.3729 13.4829 18.7698 12.999 19.0525C12.5145 19.3356 12.2027 19.4165 12.0002 19.4165V20.9165V22.4165C12.9643 22.4165 13.8191 22.0479 14.5125 21.6427C15.2064 21.2373 15.8816 20.7071 16.4734 20.2406L15.5448 19.0626Z" fill="#323E3A" mask="url(#path-1-inside-1_2368_2752)"/>
</svg>
