<svg width="56" height="56" viewBox="0 0 56 56" fill="none" xmlns="http://www.w3.org/2000/svg">
<g clip-path="url(#clip0_2160_7394)">
<path d="M18.7407 26.8786C18.2423 27.2294 17.84 27.5363 17.4027 27.7906C17.3065 27.8432 17.0791 27.7467 16.948 27.659C16.0647 27.0715 16.3708 27.0891 15.575 27.7204C14.2544 28.7727 12.9601 29.86 11.6309 30.9122C11.2986 31.1753 11.1936 31.412 11.3423 31.8329C11.7096 32.8501 12.0419 33.876 12.348 34.9107C12.4529 35.2615 12.6366 35.3579 12.9689 35.3667C13.6947 35.393 14.4206 35.4368 15.1552 35.4807C15.2951 35.4895 15.435 35.5158 15.6362 35.5333C15.505 36.0419 15.4001 36.5066 15.2601 36.9626C15.2339 37.0503 15.0328 37.138 14.9191 37.1292C13.7997 37.0766 12.6803 37.024 11.5609 36.9363C11.4297 36.9275 11.2373 36.7785 11.2024 36.6557C10.5727 34.7704 9.96054 32.8852 9.36586 30.9911C9.32214 30.8596 9.40084 30.6053 9.51453 30.5176C11.6396 28.7639 13.7735 27.0189 15.916 25.2915C16.021 25.2126 16.2484 25.1424 16.3271 25.195C17.1141 25.7299 17.8837 26.2736 18.7407 26.8786Z" fill="#04644C"/>
<path d="M31.2649 42.1433C31.7284 42.4414 32.1219 42.6782 32.498 42.95C32.5767 43.0114 32.6204 43.2131 32.5854 43.3183C32.1919 44.3881 31.7808 45.4491 31.3611 46.5013C31.3086 46.6241 31.1162 46.7556 30.985 46.7556C28.9999 46.7732 27.0235 46.7644 25.0383 46.7732C24.706 46.7732 24.6622 46.5452 24.5835 46.3347C23.8227 44.3618 23.0619 42.3801 22.3098 40.4071C22.0999 39.8634 21.8988 39.311 21.6714 38.7761C21.5664 38.5218 21.5927 38.3552 21.8288 38.1886C22.5459 37.6713 23.2455 37.1276 24.0238 36.5401C24.1987 37.1013 24.3736 37.5924 24.4873 38.0922C24.5136 38.1974 24.3299 38.3815 24.2075 38.4868C23.5341 39.0392 23.5429 39.0304 23.8664 39.8634C24.4961 41.4769 25.1257 43.0991 25.7292 44.7301C25.8428 45.0282 25.9915 45.1246 26.3063 45.1159C27.417 45.0983 28.5189 45.0896 29.6295 45.1247C30.0231 45.1334 30.198 44.9931 30.3204 44.6336C30.6002 43.8093 30.9238 43.0202 31.2649 42.1433Z" fill="#04644C"/>
<path d="M17.1054 18.5723C16.5632 18.5987 16.0735 18.6425 15.5838 18.6425C15.4963 18.6425 15.3651 18.4671 15.3301 18.3444C15.0416 17.2921 14.7705 16.2311 14.4819 15.1701C14.4119 14.9158 14.4819 14.7667 14.683 14.6177C16.2659 13.4778 17.8488 12.3291 19.4229 11.1716C19.624 11.0225 19.7727 11.0488 19.9651 11.1716C22.2476 12.6623 24.5301 14.1442 26.8214 15.6173C27.075 15.7751 27.1449 15.9417 27.0487 16.2311C26.8214 16.9238 26.6202 17.6253 26.4016 18.3268C26.3579 18.4759 26.2879 18.6162 26.2092 18.8266C25.7544 18.4847 25.3347 18.1953 24.9586 17.8621C24.8799 17.8007 24.9062 17.564 24.9499 17.4324C25.186 16.5643 25.186 16.5643 24.4427 16.082C22.991 15.135 21.5305 14.1968 20.0788 13.241C19.8252 13.0744 19.6503 13.0569 19.3879 13.2585C18.4959 13.9425 17.5864 14.6001 16.6682 15.2403C16.3796 15.4419 16.3184 15.6436 16.4146 15.9768C16.6594 16.8098 16.8693 17.6516 17.1054 18.5723Z" fill="#04644C"/>
<path d="M22.3969 41.3902C22.5893 41.8988 22.7817 42.3548 22.9304 42.8195C22.9566 42.8984 22.8517 43.0651 22.7642 43.1177C21.8197 43.7402 20.8665 44.3628 19.8958 44.9591C19.7909 45.0292 19.546 45.0117 19.4411 44.9328C17.8407 43.7841 16.249 42.6266 14.6749 41.4516C14.5525 41.3639 14.465 41.0921 14.5 40.9518C15.1909 38.2774 15.8992 35.6117 16.6163 32.946C16.6513 32.8145 16.7912 32.6216 16.8874 32.6216C17.8319 32.5953 18.7764 32.604 19.8171 32.604C19.6334 33.1389 19.4673 33.6212 19.2749 34.1035C19.2399 34.1824 19.065 34.235 18.9513 34.2525C18.7239 34.2788 18.4791 34.235 18.2517 34.2788C18.1293 34.3051 17.9544 34.4279 17.9281 34.5419C17.4034 36.4535 16.8874 38.3738 16.3977 40.2941C16.3627 40.4344 16.4764 40.6975 16.5989 40.794C17.5433 41.5042 18.5053 42.1882 19.4498 42.8897C19.6684 43.0475 19.8258 43.0387 20.0357 42.8984C20.6741 42.4688 21.33 42.0567 21.9772 41.6358C22.0909 41.5656 22.2133 41.4955 22.3969 41.3902Z" fill="#1DB45F"/>
<path d="M34.8243 34.4971C35.4102 34.4971 35.8912 34.4708 36.3635 34.5146C36.4946 34.5234 36.6521 34.7338 36.7045 34.8829C37.0194 35.6721 37.0106 35.6896 37.8501 35.6458C39.6079 35.5581 41.3745 35.4616 43.1323 35.3739C43.4121 35.3652 43.5345 35.2512 43.622 34.9793C43.9718 33.8482 44.3391 32.7258 44.7151 31.6034C44.7939 31.3666 44.7414 31.2264 44.5577 31.0773C43.8406 30.5073 43.141 29.9198 42.3627 29.2797C42.7912 28.929 43.176 28.6045 43.5783 28.3064C43.6307 28.2625 43.7969 28.3239 43.8756 28.3765C44.7676 29.0868 45.6509 29.7971 46.5167 30.5336C46.6129 30.6213 46.6741 30.8581 46.6391 30.9808C46.0444 32.8749 45.4235 34.7601 44.8201 36.6542C44.7326 36.9348 44.5315 36.9348 44.3129 36.9523C42.0304 37.0751 39.7479 37.1978 37.4566 37.3293C37.0194 37.3557 36.5821 37.3907 36.1448 37.3995C36.0224 37.3995 35.8125 37.3381 35.7863 37.2592C35.454 36.3736 35.1566 35.4616 34.8243 34.4971Z" fill="#04644C"/>
<path d="M37.2627 29.227C37.7525 28.885 38.1722 28.5693 38.6182 28.315C38.7144 28.2624 38.9418 28.3677 39.073 28.4553C39.7639 28.9201 39.7639 28.9288 40.4023 28.4115C41.784 27.2891 43.157 26.1579 44.5388 25.0443C44.7486 24.869 44.8011 24.7199 44.7049 24.4481C44.3289 23.3607 43.9791 22.2559 43.6467 21.1598C43.5505 20.8529 43.4019 20.7389 43.0958 20.7301C42.2125 20.6951 41.3293 20.6425 40.3673 20.5811C40.5072 20.0462 40.6209 19.5551 40.7696 19.0729C40.7958 19.0027 40.9795 18.9413 41.0931 18.9501C42.195 19.0027 43.3057 19.0816 44.4076 19.1342C44.6787 19.143 44.7836 19.2658 44.8623 19.5025C45.4483 21.3264 46.0342 23.1415 46.6289 24.9566C46.7251 25.2548 46.6901 25.4477 46.419 25.6669C44.3201 27.3593 42.23 29.0604 40.1487 30.779C39.9213 30.9719 39.7551 30.9983 39.5103 30.8141C38.7932 30.288 38.0586 29.7882 37.2627 29.227Z" fill="#1DB45F"/>
<path d="M29.7517 37.2602C30.2239 37.6197 30.6525 37.9003 31.0198 38.2423C31.116 38.33 31.0635 38.6193 31.0198 38.8035C30.8274 39.54 30.8186 39.54 31.457 39.9522C32.935 40.9167 34.4217 41.8637 35.8821 42.8458C36.1707 43.0387 36.3631 43.0387 36.6429 42.8283C37.5175 42.1531 38.4182 41.5042 39.3277 40.8729C39.6163 40.6712 39.6863 40.4695 39.5813 40.1363C39.3627 39.4085 39.1878 38.6719 38.9954 37.9354C38.9692 37.8301 38.9517 37.7161 38.9167 37.5232C39.4327 37.4969 39.9224 37.4619 40.4121 37.4706C40.4996 37.4706 40.6308 37.6548 40.6657 37.7688C40.9631 38.8385 41.2517 39.9083 41.5053 40.9869C41.5403 41.1272 41.4266 41.3815 41.2954 41.4779C39.73 42.6441 38.1471 43.7928 36.5642 44.924C36.4505 45.0029 36.1882 45.0205 36.0745 44.9415C33.7395 43.4509 31.422 41.9426 29.1046 40.4257C28.9996 40.3555 28.8772 40.1801 28.9034 40.0925C29.1658 39.1717 29.4544 38.2598 29.7517 37.2602Z" fill="#1DB45F"/>
<path d="M36.2052 23.5264C36.3888 22.9652 36.52 22.5092 36.7124 22.0708C36.7649 21.9568 37.0097 21.8691 37.1672 21.8603C38.0242 21.8165 38.0329 21.8252 38.2516 21.0097C38.6976 19.3262 39.1261 17.6426 39.5896 15.9678C39.6858 15.6258 39.6071 15.4329 39.3272 15.24C38.4002 14.5911 37.4732 13.9159 36.5725 13.2319C36.3364 13.0566 36.1789 13.0741 35.9603 13.2232C35.2082 13.723 34.4474 14.2053 33.6253 14.7314C33.4242 14.214 33.2318 13.7493 33.0744 13.267C33.0569 13.2056 33.1531 13.0566 33.2318 13.0039C34.1938 12.3726 35.1558 11.7413 36.1352 11.1275C36.2314 11.0661 36.45 11.0836 36.555 11.1538C38.1379 12.2937 39.712 13.4512 41.3036 14.5911C41.5398 14.7665 41.5922 14.9331 41.5135 15.2224C40.8139 17.8267 40.123 20.4398 39.4409 23.0528C39.3535 23.3861 39.2048 23.4913 38.8725 23.4825C38.1903 23.465 37.4995 23.5 36.8173 23.5088C36.6337 23.5264 36.4675 23.5264 36.2052 23.5264Z" fill="#04644C"/>
<path d="M21.1809 21.6151C20.595 21.6151 20.0877 21.6239 19.5893 21.6063C19.5018 21.6063 19.3881 21.4573 19.3356 21.352C19.2394 21.1591 19.1695 20.9487 19.117 20.7382C19.0471 20.4927 18.9071 20.4226 18.6623 20.4401C16.7296 20.5453 14.7969 20.6506 12.8642 20.747C12.5931 20.7645 12.4532 20.861 12.3745 21.1328C12.0334 22.2465 11.6661 23.3601 11.2988 24.4649C11.2113 24.728 11.2551 24.8946 11.4737 25.07C12.1821 25.6312 12.8729 26.2099 13.6425 26.8325C13.214 27.1832 12.8292 27.4989 12.4182 27.797C12.357 27.8409 12.1733 27.7795 12.0859 27.7093C11.2113 27.0078 10.3368 26.3063 9.47979 25.5785C9.37484 25.4909 9.30488 25.2629 9.34861 25.1401C9.94328 23.2461 10.5554 21.3608 11.1851 19.4756C11.2288 19.344 11.43 19.1774 11.5699 19.1686C14.3334 19.002 17.0969 18.853 19.8516 18.7039C19.974 18.6951 20.1752 18.7653 20.2102 18.8442C20.5512 19.7298 20.8486 20.6418 21.1809 21.6151Z" fill="#1DB45F"/>
<path d="M31.9897 19.5728C31.8148 19.0116 31.6486 18.5381 31.5437 18.0383C31.5174 17.9155 31.6836 17.7138 31.8148 17.6086C32.5581 17.0123 32.5319 17.2842 32.1646 16.3108C31.5699 14.7237 30.949 13.1541 30.3543 11.567C30.2057 11.1549 30.0133 10.9707 29.541 10.9883C28.4654 11.0321 27.3897 11.0146 26.3053 10.997C25.9905 10.9883 25.8331 11.1023 25.7281 11.3916C25.4832 12.0931 25.2034 12.7858 24.941 13.4786C24.8886 13.6189 24.8186 13.7592 24.7312 13.9521C24.2852 13.6627 23.8741 13.4084 23.4981 13.1278C23.4281 13.0752 23.4019 12.8648 23.4456 12.7595C23.8391 11.7073 24.2414 10.6551 24.6612 9.62035C24.7137 9.48882 24.9323 9.34852 25.0722 9.34852C27.0399 9.33098 29.0076 9.33098 30.9665 9.34852C31.1064 9.34852 31.3251 9.49759 31.3688 9.62912C32.3832 12.2071 33.3714 14.7939 34.3596 17.3894C34.4034 17.5122 34.3596 17.7577 34.2722 17.8366C33.5463 18.4066 32.803 18.9502 31.9897 19.5728Z" fill="#1DB45F"/>
<path d="M22.5093 15.1348C22.9815 15.4329 23.41 15.696 23.8123 15.9941C23.8735 16.038 23.8298 16.2835 23.7861 16.4238C23.5412 17.1165 23.5325 17.1165 24.1096 17.555C25.3077 18.4581 26.5058 19.3613 27.6952 20.2732C27.9226 20.4486 28.0975 20.4311 28.3074 20.2645C28.7009 19.9488 29.1119 19.6507 29.6016 19.2736C29.7765 19.8436 29.9515 20.3434 30.0826 20.852C30.1001 20.9309 29.9777 21.08 29.8902 21.1501C29.3568 21.571 28.7971 21.9831 28.2636 22.404C28.0712 22.5531 27.9138 22.5443 27.7214 22.3953C25.7537 20.8958 23.7773 19.4051 21.8097 17.9057C21.7047 17.818 21.591 17.5988 21.626 17.4936C21.8884 16.7132 22.1944 15.9591 22.5093 15.1348Z" fill="#1DB45F"/>
<path d="M26.3921 36.838C26.2172 36.2768 26.0598 35.7945 25.9286 35.3035C25.9024 35.2158 25.9899 35.0492 26.0773 34.9878C26.6283 34.5581 27.1967 34.146 27.7477 33.7076C27.9488 33.5497 28.0975 33.576 28.2899 33.7251C30.2663 35.2246 32.2427 36.7152 34.2104 38.2147C34.3241 38.3024 34.4115 38.5479 34.3765 38.6706C34.1229 39.416 33.8256 40.1438 33.5107 40.968C33.0385 40.6699 32.61 40.3981 32.1815 40.1087C32.129 40.0736 32.1377 39.9158 32.164 39.8369C32.2165 39.6527 32.2864 39.4774 32.3651 39.302C32.4701 39.074 32.4089 38.9249 32.2165 38.7846C30.8959 37.7938 29.5841 36.8029 28.2724 35.8033C28.0712 35.6454 27.9226 35.6718 27.7302 35.8208C27.3104 36.154 26.8819 36.4609 26.3921 36.838Z" fill="#04644C"/>
<path d="M31.1345 14.3555C31.3269 14.8466 31.5105 15.2762 31.6592 15.7147C31.6942 15.8111 31.6242 15.9865 31.5368 16.0742C31.4056 16.2057 31.2394 16.3022 31.0733 16.3898C30.8459 16.5126 30.8284 16.6792 30.8984 16.8984C31.3706 18.4417 31.8516 19.9938 32.3064 21.5458C32.3938 21.8352 32.5337 21.9404 32.8311 21.9316C33.3383 21.9053 33.8455 21.9229 34.4314 21.9229C34.2478 22.4578 34.0991 22.94 33.9067 23.4048C33.8717 23.4925 33.6706 23.5626 33.5482 23.5714C32.866 23.5977 32.1839 23.6152 31.493 23.5977C31.3619 23.5977 31.1432 23.4399 31.1083 23.3083C30.3649 20.9232 29.6391 18.5382 28.9307 16.1531C28.8957 16.0216 28.9832 15.7673 29.0969 15.6883C29.744 15.2499 30.4086 14.829 31.1345 14.3555Z" fill="#04644C"/>
<path d="M15.9867 20.8253C16.5289 20.799 16.9924 20.7639 17.4472 20.7639C17.5521 20.7639 17.6833 20.9042 17.7358 21.0094C17.8145 21.1585 17.8582 21.3426 17.8844 21.5092C17.9282 21.7635 18.0681 21.8337 18.3042 21.8337C19.9221 21.8512 21.5312 21.8775 23.1491 21.9214C23.4814 21.9301 23.6213 21.8074 23.7 21.5092C23.8225 21.0357 23.9799 20.5622 24.1548 19.9835C24.6358 20.343 25.0555 20.6587 25.4666 20.9919C25.519 21.0357 25.519 21.1848 25.4928 21.2725C25.2917 21.974 25.0905 22.6755 24.8456 23.3594C24.8019 23.4822 24.5396 23.6049 24.3821 23.6049C22.5369 23.5874 20.6829 23.5436 18.8377 23.5173C18.2255 23.5085 17.6133 23.5085 17.0012 23.4822C16.87 23.4734 16.6689 23.377 16.6426 23.2805C16.424 22.5001 16.2229 21.7109 15.9867 20.8253Z" fill="#04644C"/>
<path d="M14.0453 29.2972C14.5176 28.9114 14.9373 28.5782 15.3571 28.2362C15.5408 28.3677 15.7157 28.4642 15.8381 28.5957C16.1179 28.9026 16.3541 28.8938 16.6864 28.6483C17.9544 27.7276 19.2487 26.8244 20.543 25.93C20.7617 25.781 20.8141 25.6231 20.7267 25.3776C20.5518 24.8865 20.3856 24.3955 20.202 23.8343C20.7791 23.8343 21.2951 23.8255 21.8111 23.8431C21.8985 23.8431 22.0122 24.0009 22.0472 24.1061C22.2833 24.7638 22.5194 25.4214 22.7206 26.0966C22.7556 26.2194 22.6856 26.4474 22.5807 26.5175C20.543 27.9731 18.4879 29.4112 16.4328 30.8405C16.3278 30.9106 16.1005 30.9545 16.0217 30.8843C15.3746 30.3933 14.7449 29.8759 14.0453 29.2972Z" fill="#1DB45F"/>
<path d="M41.9504 26.8165C41.5219 27.1672 41.1721 27.4741 40.7873 27.7372C40.6999 27.7986 40.4638 27.746 40.3588 27.667C39.7292 27.2111 39.7292 27.2023 39.0908 27.6495C37.8839 28.4913 36.6858 29.3506 35.479 30.1837C35.2429 30.3503 35.1991 30.5081 35.2953 30.7624C35.4702 31.2359 35.6277 31.7182 35.8113 32.2794C35.2429 32.2794 34.7269 32.2969 34.2109 32.2618C34.1147 32.2531 33.9923 32.0865 33.9486 31.9637C33.7125 31.3323 33.5113 30.6922 33.2839 30.0609C33.1965 29.8241 33.249 29.6926 33.4501 29.5523C35.4702 28.1406 37.4816 26.7288 39.493 25.2995C39.7379 25.1241 39.9128 25.1329 40.1402 25.3258C40.7174 25.8256 41.312 26.2904 41.9504 26.8165Z" fill="#04644C"/>
<path d="M19.177 29.2278C19.658 28.8859 20.0515 28.5965 20.4713 28.3247C20.55 28.272 20.7336 28.2984 20.8211 28.351C21.4245 28.7543 22.0279 29.1665 22.6051 29.6137C22.7013 29.6838 22.7188 29.9556 22.6751 30.0959C22.1679 31.6217 21.6431 33.1387 21.1272 34.6556C20.8561 35.4448 20.5762 36.2252 20.3314 37.0232C20.2264 37.3476 20.069 37.4528 19.7367 37.4265C19.0021 37.3564 18.2587 37.3301 17.4542 37.2775C17.5941 36.7601 17.7078 36.2866 17.8565 35.8131C17.8827 35.7342 18.0226 35.664 18.1188 35.6553C18.2937 35.6377 18.4686 35.6465 18.6435 35.6728C18.9234 35.7166 19.0546 35.6027 19.1508 35.3308C19.658 33.8051 20.1739 32.2881 20.7074 30.7711C20.8036 30.4905 20.7686 30.3151 20.5063 30.1485C20.0778 29.8767 19.6667 29.5786 19.177 29.2278Z" fill="#04644C"/>
<path d="M38.5589 18.8351C38.4102 19.37 38.314 19.826 38.1566 20.2556C38.1128 20.3608 37.868 20.4398 37.7106 20.4398C36.9935 20.4398 36.9935 20.4222 36.7573 21.1062C36.2764 22.5004 35.8041 23.8946 35.3144 25.2888C35.2007 25.5957 35.2357 25.7886 35.5418 25.9728C35.9615 26.2271 36.3463 26.5428 36.8273 26.8847C36.3376 27.2267 35.9091 27.5336 35.463 27.823C35.4106 27.8581 35.2619 27.8142 35.1919 27.7704C34.5885 27.3582 33.9851 26.9461 33.4079 26.5164C33.3205 26.4463 33.2592 26.2271 33.2942 26.1131C34.0988 23.7368 34.9121 21.3605 35.7341 18.9929C35.7779 18.8702 35.944 18.7036 36.049 18.7123C36.8535 18.7211 37.6668 18.7825 38.5589 18.8351Z" fill="#1DB45F"/>
<path d="M24.8644 41.7495C24.672 41.241 24.4883 40.785 24.3309 40.3202C24.3047 40.2501 24.3834 40.101 24.4533 40.0397C24.6108 39.9081 24.8119 39.838 24.9518 39.6889C25.048 39.5837 25.1442 39.382 25.1092 39.268C24.637 37.6721 24.1473 36.085 23.6663 34.4891C23.5963 34.2523 23.4651 34.1734 23.2203 34.1822C22.6956 34.1997 22.1796 34.1822 21.5674 34.1822C21.7511 33.6561 21.891 33.1738 22.0834 32.709C22.1184 32.6126 22.3108 32.5424 22.4419 32.5424C23.1153 32.5161 23.78 32.5161 24.4533 32.4986C24.7157 32.4898 24.8381 32.5951 24.9168 32.8493C25.6252 35.1993 26.3336 37.5406 27.0594 39.8906C27.1469 40.1712 27.0944 40.3466 26.8408 40.5044C26.1936 40.8814 25.564 41.2936 24.8644 41.7495Z" fill="#1DB45F"/>
<path d="M31.8419 36.1107C31.3609 35.7512 30.9586 35.4706 30.5826 35.155C30.5126 35.0936 30.4776 34.9182 30.5039 34.813C30.6963 34.129 30.9149 33.4451 31.1073 32.7611C31.1947 32.463 31.4046 32.4893 31.6233 32.4893C33.416 32.5244 35.2001 32.5507 36.9928 32.5857C37.6487 32.5945 38.3046 32.6033 38.9605 32.6033C39.2054 32.6033 39.3278 32.6734 39.389 32.9277C39.5552 33.6117 39.7388 34.2869 39.9225 34.9621C39.9924 35.2076 39.9137 35.3216 39.6601 35.3216C39.5289 35.3216 39.3978 35.3303 39.2666 35.3303C38.3746 35.3566 38.3833 35.3566 38.0772 34.5412C38.0335 34.4272 37.8586 34.2869 37.7449 34.2869C36.0746 34.243 34.3955 34.2079 32.7252 34.1992C32.5852 34.1992 32.3841 34.3921 32.3229 34.5412C32.148 35.0147 32.0168 35.5232 31.8419 36.1107Z" fill="#1DB45F"/>
</g>
<defs>
<clipPath id="clip0_2160_7394">
<rect width="37.3333" height="37.3333" fill="white" transform="translate(9.33305 9.33305)"/>
</clipPath>
</defs>
</svg>
