<svg width="21" height="19" viewBox="0 0 21 19" fill="none" xmlns="http://www.w3.org/2000/svg">
<path d="M11.9282 1.36475C12.0981 1.50124 12.3154 1.69184 12.6099 1.95361L17.2446 6.07275C18.1763 6.90093 18.8145 7.47119 19.23 7.95947C19.6316 8.43146 19.7378 8.72896 19.7378 9.00049C19.7377 9.27189 19.6314 9.56882 19.23 10.0405C18.8145 10.5288 18.1763 11.0991 17.2446 11.9272L12.6099 16.0464C12.3157 16.3079 12.098 16.4978 11.9282 16.6343C11.9175 16.4169 11.9165 16.1286 11.9165 15.7358V12.2505H11.1665C8.95396 12.2505 6.65414 12.7756 4.66943 13.7427C3.49923 14.3129 2.42185 15.0463 1.53564 15.9312C1.92605 12.1557 3.23865 9.73171 4.83057 8.2085C6.74922 6.3727 9.17137 5.75049 11.1665 5.75049H11.9165V2.26514C11.9165 1.87153 11.9174 1.58231 11.9282 1.36475Z" stroke="#323E3A" stroke-width="1.5" stroke-linecap="round" stroke-linejoin="round"/>
</svg>
