<svg width="25" height="22" viewBox="0 0 25 22" fill="none" xmlns="http://www.w3.org/2000/svg">
<path d="M8.62202 18.7308L8.31248 19.1234L8.31248 19.1234L8.62202 18.7308ZM12.1667 3.0855L11.8064 3.43223C11.9007 3.53016 12.0307 3.5855 12.1667 3.5855C12.3026 3.5855 12.4327 3.53016 12.5269 3.43223L12.1667 3.0855ZM15.7113 18.7308L15.4018 18.3381L15.4018 18.3381L15.7113 18.7308ZM8.62202 18.7308L8.93156 18.3381C7.18555 16.9617 5.21045 15.57 3.64761 13.8102C2.10191 12.0697 1 10.0087 1 7.32804H0.5H0C0 10.3208 1.24276 12.6082 2.8999 14.4742C4.53989 16.3209 6.6258 17.7938 8.31248 19.1234L8.62202 18.7308ZM0.5 7.32804H1C1 4.67839 2.49777 2.43697 4.57252 1.48859C6.61575 0.554623 9.30948 0.837998 11.8064 3.43223L12.1667 3.0855L12.5269 2.73876C9.77404 -0.121371 6.63443 -0.553436 4.15679 0.579103C1.71066 1.69723 0 4.30426 0 7.32804H0.5ZM8.62202 18.7308L8.31248 19.1234C8.91354 19.5973 9.53491 20.083 10.1588 20.4476C10.7826 20.812 11.4564 21.0848 12.1667 21.0848V20.5848V20.0848C11.7103 20.0848 11.2174 19.9079 10.6633 19.5842C10.1094 19.2605 9.54182 18.8192 8.93156 18.3381L8.62202 18.7308ZM15.7113 18.7308L16.0209 19.1234C17.7075 17.7938 19.7934 16.3209 21.4334 14.4742C23.0906 12.6082 24.3333 10.3208 24.3333 7.32804H23.8333H23.3333C23.3333 10.0087 22.2314 12.0697 20.6857 13.8102C19.1229 15.57 17.1478 16.9617 15.4018 18.3381L15.7113 18.7308ZM23.8333 7.32804H24.3333C24.3333 4.30426 22.6227 1.69723 20.1765 0.579103C17.6989 -0.553436 14.5593 -0.121371 11.8064 2.73876L12.1667 3.0855L12.5269 3.43223C15.0239 0.837998 17.7176 0.554623 19.7608 1.48859C21.8356 2.43697 23.3333 4.67839 23.3333 7.32804H23.8333ZM15.7113 18.7308L15.4018 18.3381C14.7915 18.8192 14.2239 19.2605 13.67 19.5842C13.1159 19.9079 12.6231 20.0848 12.1667 20.0848V20.5848V21.0848C12.8769 21.0848 13.5508 20.812 14.1745 20.4476C14.7984 20.083 15.4198 19.5973 16.0209 19.1234L15.7113 18.7308Z" fill="black"/>
</svg>
